<mxfile host="app.diagrams.net" modified="2021-03-09T11:05:51.122Z" agent="5.0 (Macintosh)" etag="u3xn7-QtAu15sZ6POUzS" version="14.4.5" type="github">
  <diagram id="R2lEEEUBdFMjLlhIrx00" name="Page-1">
    <mxGraphModel dx="1795" dy="1309" grid="1" gridSize="10" guides="1" tooltips="1" connect="1" arrows="1" fold="1" page="0" pageScale="1" pageWidth="850" pageHeight="1100" math="0" shadow="0" extFonts="Permanent Marker^https://fonts.googleapis.com/css?family=Permanent+Marker">
      <root>
        <mxCell id="0" />
        <mxCell id="1" parent="0" />
        <mxCell id="grZ1fo2WF4K5mLDcHJ-8-249" value="" style="whiteSpace=wrap;html=1;aspect=fixed;dashed=1;shadow=0;fillColor=none;" vertex="1" parent="1">
          <mxGeometry x="561" y="50" width="550" height="550" as="geometry" />
        </mxCell>
        <mxCell id="grZ1fo2WF4K5mLDcHJ-8-5" value="&lt;div&gt;RPI CLUSTER&lt;/div&gt;&lt;div&gt;&lt;br&gt;&lt;/div&gt;" style="text;strokeColor=none;fillColor=none;html=1;fontSize=24;fontStyle=1;verticalAlign=middle;align=center;" vertex="1" parent="1">
          <mxGeometry x="390" y="-90" width="100" height="40" as="geometry" />
        </mxCell>
        <mxCell id="grZ1fo2WF4K5mLDcHJ-8-244" value="" style="group" vertex="1" connectable="0" parent="1">
          <mxGeometry x="80" y="121" width="60" height="40" as="geometry" />
        </mxCell>
        <mxCell id="grZ1fo2WF4K5mLDcHJ-8-6" value="" style="shape=cube;whiteSpace=wrap;html=1;boundedLbl=1;backgroundOutline=1;darkOpacity=0.05;darkOpacity2=0.1;" vertex="1" parent="grZ1fo2WF4K5mLDcHJ-8-244">
          <mxGeometry width="60" height="40" as="geometry" />
        </mxCell>
        <mxCell id="grZ1fo2WF4K5mLDcHJ-8-240" value="&lt;div&gt;RPI&lt;/div&gt;" style="text;html=1;strokeColor=none;fillColor=none;align=center;verticalAlign=middle;whiteSpace=wrap;rounded=0;" vertex="1" parent="grZ1fo2WF4K5mLDcHJ-8-244">
          <mxGeometry x="20" y="20" width="40" height="20" as="geometry" />
        </mxCell>
        <mxCell id="grZ1fo2WF4K5mLDcHJ-8-245" value="" style="group" vertex="1" connectable="0" parent="1">
          <mxGeometry x="801" y="111" width="70" height="60.5" as="geometry" />
        </mxCell>
        <mxCell id="grZ1fo2WF4K5mLDcHJ-8-7" value="" style="shape=cube;whiteSpace=wrap;html=1;boundedLbl=1;backgroundOutline=1;darkOpacity=0.05;darkOpacity2=0.1;" vertex="1" parent="grZ1fo2WF4K5mLDcHJ-8-245">
          <mxGeometry width="60" height="40" as="geometry" />
        </mxCell>
        <mxCell id="grZ1fo2WF4K5mLDcHJ-8-242" value="&lt;div&gt;RPI&lt;/div&gt;" style="text;html=1;strokeColor=none;fillColor=none;align=center;verticalAlign=middle;whiteSpace=wrap;rounded=0;" vertex="1" parent="grZ1fo2WF4K5mLDcHJ-8-245">
          <mxGeometry x="20" y="21" width="40" height="20" as="geometry" />
        </mxCell>
        <mxCell id="grZ1fo2WF4K5mLDcHJ-8-252" value="" style="whiteSpace=wrap;html=1;aspect=fixed;dashed=1;shadow=0;fillColor=none;" vertex="1" parent="1">
          <mxGeometry x="-160" y="50" width="550" height="550" as="geometry" />
        </mxCell>
      </root>
    </mxGraphModel>
  </diagram>
</mxfile>
